<svg width="359" height="51" viewBox="0 0 359 51" fill="none" xmlns="http://www.w3.org/2000/svg">
<path d="M9.408 21.552H34.464V29.256H9.408V21.552ZM10.128 43.152H38.568V51H0.768V0.599997H37.56V8.448H10.128V43.152ZM60.1793 51L43.4753 0.599997H53.1953L68.0993 46.176H63.2753L78.7553 0.599997H87.3953L102.443 46.176H97.7633L113.027 0.599997H121.955L105.251 51H95.3153L81.5633 9.888H84.1553L70.1873 51H60.1793ZM120.835 51L143.515 0.599997H152.731L175.483 51H165.691L146.179 5.568H149.923L130.483 51H120.835ZM131.275 39.336L133.795 31.992H161.011L163.531 39.336H131.275ZM191.101 51L174.397 0.599997H184.117L199.021 46.176H194.197L209.677 0.599997H218.317L233.365 46.176H228.685L243.949 0.599997H252.877L236.173 51H226.237L212.485 9.888H215.077L201.109 51H191.101ZM268.854 39.12L268.35 28.032L294.774 0.599997H305.286L283.326 23.928L278.142 29.616L268.854 39.12ZM260.502 51V0.599997H269.862V51H260.502ZM295.638 51L276.342 28.032L282.534 21.192L306.582 51H295.638ZM303.648 51L326.328 0.599997H335.544L358.296 51H348.504L328.992 5.568H332.736L313.296 51H303.648ZM314.088 39.336L316.608 31.992H343.824L346.344 39.336H314.088Z" fill="#33CFA9"/>
</svg>
